<svg width="30" height="30" viewBox="0 0 30 30" fill="none" xmlns="http://www.w3.org/2000/svg">
<path fill-rule="evenodd" clip-rule="evenodd" d="M1.47338 3.91308C2.54959 1.98225 4.6233 0.666626 7.00018 0.666626H19.0002C19.5525 0.666626 20.0002 1.11434 20.0002 1.66663V15C20.0002 17.0189 18.3525 18.6666 16.3335 18.6666H15.0002C14.4479 18.6666 14.0002 18.2189 14.0002 17.6666C14.0002 17.1143 14.4479 16.6666 15.0002 16.6666H16.3335C17.2479 16.6666 18.0002 15.9143 18.0002 15V2.66663H7.00018C5.37706 2.66663 3.95747 3.56431 3.22034 4.8868C2.95146 5.36921 2.34241 5.54231 1.86 5.27342C1.37759 5.00454 1.2045 4.39549 1.47338 3.91308Z" fill="#A4A4A4"/>
<path fill-rule="evenodd" clip-rule="evenodd" d="M18.0003 5.66663C18.0003 5.11434 18.448 4.66663 19.0003 4.66663H21.4537C22.7788 4.66663 23.984 5.38395 24.6385 6.51117L24.6418 6.51685L24.6418 6.51686L26.9217 10.5035C27.0987 10.813 27.0975 11.1933 26.9186 11.5017C26.7397 11.8101 26.4102 12 26.0536 12H24.3337C24.1526 12 24.0003 12.1522 24.0003 12.3333V16.3333C24.0003 16.5143 24.1526 16.6666 24.3337 16.6666H28.3337C28.8859 16.6666 29.3337 17.1143 29.3337 17.6666V21.6666C29.3337 24.4322 27.0993 26.6666 24.3337 26.6666H23.0003C22.448 26.6666 22.0003 26.2189 22.0003 25.6666C22.0003 24.7522 21.248 24 20.3337 24C19.4193 24 18.667 24.7522 18.667 25.6666C18.667 26.2189 18.2193 26.6666 17.667 26.6666H12.3337C11.7814 26.6666 11.3337 26.2189 11.3337 25.6666C11.3337 24.7522 10.5814 24 9.66699 24C8.75261 24 8.00033 24.7522 8.00033 25.6666C8.00033 26.2189 7.55261 26.6666 7.00033 26.6666H5.66699C2.90137 26.6666 0.666992 24.4322 0.666992 21.6666C0.666992 21.1143 1.11471 20.6666 1.66699 20.6666C2.21928 20.6666 2.66699 21.1143 2.66699 21.6666C2.66699 23.3277 4.00594 24.6666 5.66699 24.6666H6.1394C6.57668 23.1308 7.99445 22 9.66699 22C11.3395 22 12.7573 23.1308 13.1946 24.6666H16.8061C17.2434 23.1308 18.6611 22 20.3337 22C22.0062 22 23.424 23.1308 23.8612 24.6666H24.3337C25.9947 24.6666 27.3337 23.3277 27.3337 21.6666V18.6666H24.3337C23.048 18.6666 22.0003 17.6189 22.0003 16.3333V12.3333C22.0003 11.049 23.0459 10.0021 24.3298 9.99996L22.9089 7.51544C22.9084 7.51461 22.9079 7.51378 22.9074 7.51295C22.6017 6.98831 22.0476 6.66663 21.4537 6.66663H20.0003V15C20.0003 17.0189 18.3526 18.6666 16.3337 18.6666H15.0003C14.448 18.6666 14.0003 18.2189 14.0003 17.6666C14.0003 17.1143 14.448 16.6666 15.0003 16.6666H16.3337C17.248 16.6666 18.0003 15.9143 18.0003 15V5.66663Z" fill="#A4A4A4"/>
<path fill-rule="evenodd" clip-rule="evenodd" d="M9.66667 24C8.74619 24 8 24.7462 8 25.6667C8 26.5871 8.74619 27.3333 9.66667 27.3333C10.5871 27.3333 11.3333 26.5871 11.3333 25.6667C11.3333 24.7462 10.5871 24 9.66667 24ZM6 25.6667C6 23.6416 7.64162 22 9.66667 22C11.6917 22 13.3333 23.6416 13.3333 25.6667C13.3333 27.6917 11.6917 29.3333 9.66667 29.3333C7.64162 29.3333 6 27.6917 6 25.6667Z" fill="#A4A4A4"/>
<path fill-rule="evenodd" clip-rule="evenodd" d="M20.3337 23.9999C19.4132 23.9999 18.667 24.7461 18.667 25.6666C18.667 26.5871 19.4132 27.3333 20.3337 27.3333C21.2541 27.3333 22.0003 26.5871 22.0003 25.6666C22.0003 24.7461 21.2541 23.9999 20.3337 23.9999ZM16.667 25.6666C16.667 23.6416 18.3086 21.9999 20.3337 21.9999C22.3587 21.9999 24.0003 23.6416 24.0003 25.6666C24.0003 27.6917 22.3587 29.3333 20.3337 29.3333C18.3086 29.3333 16.667 27.6917 16.667 25.6666Z" fill="#A4A4A4"/>
<path fill-rule="evenodd" clip-rule="evenodd" d="M24.3333 12C24.1523 12 24 12.1523 24 12.3333V16.3333C24 16.5144 24.1523 16.6667 24.3333 16.6667H27.3333V15.265L25.4723 12H24.3333ZM22 12.3333C22 11.0477 23.0477 10 24.3333 10H26.0533C26.4125 10 26.7442 10.1927 26.9221 10.5048L29.2021 14.5048C29.2881 14.6557 29.3333 14.8263 29.3333 15V17.6667C29.3333 18.219 28.8856 18.6667 28.3333 18.6667H24.3333C23.0477 18.6667 22 17.619 22 16.3333V12.3333Z" fill="#A4A4A4"/>
<path fill-rule="evenodd" clip-rule="evenodd" d="M0.666992 9.66663C0.666992 9.11434 1.11471 8.66663 1.66699 8.66663H9.66699C10.2193 8.66663 10.667 9.11434 10.667 9.66663C10.667 10.2189 10.2193 10.6666 9.66699 10.6666H1.66699C1.11471 10.6666 0.666992 10.2189 0.666992 9.66663Z" fill="#A4A4A4"/>
<path fill-rule="evenodd" clip-rule="evenodd" d="M0.666992 13.6666C0.666992 13.1143 1.11471 12.6666 1.66699 12.6666H7.00033C7.55261 12.6666 8.00033 13.1143 8.00033 13.6666C8.00033 14.2189 7.55261 14.6666 7.00033 14.6666H1.66699C1.11471 14.6666 0.666992 14.2189 0.666992 13.6666Z" fill="#A4A4A4"/>
<path fill-rule="evenodd" clip-rule="evenodd" d="M0.666992 17.6666C0.666992 17.1143 1.11471 16.6666 1.66699 16.6666H4.33366C4.88594 16.6666 5.33366 17.1143 5.33366 17.6666C5.33366 18.2189 4.88594 18.6666 4.33366 18.6666H1.66699C1.11471 18.6666 0.666992 18.2189 0.666992 17.6666Z" fill="#A4A4A4"/>
</svg>
